<?xml version="1.0" encoding="UTF-8" standalone="no"?>
<svg
   xmlns:dc="http://purl.org/dc/elements/1.1/"
   xmlns:cc="http://creativecommons.org/ns#"
   xmlns:rdf="http://www.w3.org/1999/02/22-rdf-syntax-ns#"
   xmlns:svg="http://www.w3.org/2000/svg"
   xmlns="http://www.w3.org/2000/svg"
   xmlns:sodipodi="http://sodipodi.sourceforge.net/DTD/sodipodi-0.dtd"
   xmlns:inkscape="http://www.inkscape.org/namespaces/inkscape"
   version="1.0"
   width="1000px"
   height="384px"
   viewBox="0 0 10000 3840"
   preserveAspectRatio="xMidYMid meet"
   id="svg36"
   sodipodi:docname="pdp11-452.svg"
   inkscape:version="0.92.1 r15371">
  <metadata
     id="metadata42">
    <rdf:RDF>
      <cc:Work
         rdf:about="">
        <dc:format>image/svg+xml</dc:format>
        <dc:type
           rdf:resource="http://purl.org/dc/dcmitype/StillImage" />
        <dc:title></dc:title>
      </cc:Work>
    </rdf:RDF>
  </metadata>
  <defs
     id="defs40" />
  <sodipodi:namedview
     pagecolor="#ffffff"
     bordercolor="#666666"
     borderopacity="1"
     objecttolerance="10"
     gridtolerance="10"
     guidetolerance="10"
     inkscape:pageopacity="0"
     inkscape:pageshadow="2"
     inkscape:window-width="1680"
     inkscape:window-height="987"
     id="namedview38"
     showgrid="false"
     inkscape:zoom="1"
     inkscape:cx="457.34196"
     inkscape:cy="316.01156"
     inkscape:window-x="2152"
     inkscape:window-y="385"
     inkscape:window-maximized="1"
     inkscape:current-layer="svg36" />
  <g
     id="layer1"
     style="fill:#cdcdcd;stroke:none"
     transform="matrix(2.6494284,0,0,2.6494284,-257.31083,-165.25053)">
    <path
       d="m 161,1412 c -5.38157,-570.6459 -3.21339,-44.1134 -5,-981 29.2456,-59.43844 181.19484,-27.81797 176,13 116.12213,-53.14242 203.92034,-73.10999 312,-40 153.45048,62.3454 170.92139,97.90393 235,196 66.29225,-125.89763 179.7513,-215.01294 336,-214 44,0 97,6 118,13 63,38 71,39 67,-126 -3.3556,-214.436764 -28.1536,-167.71857 83,-170 131,-3 101,-23 107,139 4.4044,118.91847 8,138 56,138 19,0 46,7 60,17 23,15 30,15 93,0 126,-31 214,-18 314,45 52,33 46,35 120,-29 35,-31 42,-33 110,-33 82,0 97,9 97,57 0,28 4,33 23,33 13,0 46,-20 76,-45 52,-44 54,-45 125,-45 43,0 95,-3 102,4 1.935,582.17327 -6.137,503.21336 24,423 82.9754,-512.02791 79.5088,-469.66726 103,-613 37,-7 22,-7 56,0 5,18 0,51 -82,569 300.4672,-353.64551 41.1869,-53.06799 321,-376 99.5608,-2.12578 63.6825,-4.75293 127,-2 l 8,210 7,264 c -0.028,22.92531 9.6825,-1.64101 82,-9 44,0 86,37 99,68 98.5302,86.8267 193.4185,-20.10409 123,-107 -30,-35 -52,-30 -118,-16 -17,12 -43,15 -92,13 l -69,-3 c 32.9707,-297.84637 30.2313,-277.66433 52,-413 -10.285,-3.54299 39.2412,-5.84825 204,-12 160.8879,-6.00722 188,2 200,17 18,21 16,124 -1,141 -153.7122,22.19971 -157.0666,13.66949 -271,12 -8,92 -6,74 64,76 132,18 226,109 227,227 0,81 -16.0247,135.06405 -64,179 -134.0969,122.8063 -238.8932,106.2136 -371,6 -64,-65 -57,-64 -61,17 l 1,62 -98,3 c -100,-2 -79.809,16.9801 -77,-81 2.4081,-83.9959 20,-47 -12,-47 -261.5838,-0.50999 -64.1179,-3.64099 -320,-2 -88.5019,458.1509 -65.0719,379.3118 -104,378 -67.1067,-14.2649 -65.7183,61.4084 8,-235 -46.9928,-4.7389 -23.9968,-5.3659 -139,0 -6.5553,-646.7128 -2.059,-56.7171 -3,-577 -80,4 0,0 -139,2 4,545 -1.2585,47.73331 0,567 0,0 -26.0665,0.6375 -190,7 -1.8617,-172.20036 -3,-55.5627 -1,-227 -85.5094,210.4235 -342.168,259.5961 -529,186 l 6,151 c -4,83 2,165 -3,170 -68.6994,-1.656 -125.0712,-3.4458 -196,-1 l 1,-123 c 1,-67 -2,-125 -8,-136 -7,-13 -24,-21 -55,-24 -25,-3 -52,-13 -61,-22 -15,-14 -19,-14 -53,0 -228.5043,66.045 -385.1477,-39.3991 -467,-180 -116.73174,206.8837 -328.85708,241.349 -502,179 -23,-7 -23,-7 -24,106 -1.30844,141.4093 -0.76655,41.8088 -2,200 l -93,-3 c -65,2 135,2 -113,4 z m 127,-54 c 14,-5 9.58126,66.9738 12,-183 C 302.64195,901.95713 253,923 403,1031 621.44889,1140.6237 880.63572,983.21613 850,743 817.90255,509.3927 565.52989,378.10815 384,488 c -116,77 -99,91 -100,-4 2,-40 -26,-38 -52,-40 0.74151,897.6115 1.65054,25.55045 -1.58032,832.367 C 230.00752,1379.2934 213.81806,1358.8779 288,1358 Z m 1383,-1 c -2.1636,-326.7394 -2,-38 -4,-350 360.5265,166.4348 691.1702,-86.39737 502,-429 -55,-82 -168,-133 -265,-133 -52,0 -100,11 -153,38 -97,47 -97.4723,86.01602 -99,34 -3.2299,-109.97636 11,-76 -28,-75 -48,-1 -23,-26 -16,448 -3.6603,603.6172 -34.1082,442.443 63,467 z m -285,-323 c 72,-35 82,-90 82,-27 2.4099,56.5405 -8.3419,59.993 57,58 l 3,-355 c 1,-195 -1,-395 -5,-445 -8,-87 -9,-90 -32,-90 h -25 c 1.8685,264.29095 1.7214,68.72452 5,382 -109.885,-134.57485 -325.8296,-120.37134 -412,-66 -98,64 -147,168 -137,293 7,80 43,151 108,209 61,55 114,75 201,76 58,1 86,0 155,-35 z m 1884,-56 c -3.9904,-75.46043 -11,-54 30,-55 0,-69 8.8423,-48.59751 -34,-49 -11.6268,-381.82134 7.041,-83.4937 -9,-440 -25,1 -45,0 -53,3 -319.8261,402.32537 -31.1445,37.43846 -360,456 l 13,28 c 347,6 32.0857,-0.25261 365,6 2,97 -2,130 -2,130 79.7313,-2.3866 54.4276,4.7271 50,-79 z m 412,47 c 98,-66 114,-192 35,-281 -45,-52 -81,-67 -167,-68 l -75,-1 c 6.7647,-86.85566 10.8205,-110.53275 17,-181 232.9341,1.27899 29.7286,0.68319 256,3 4,-34 10,-50 -18,-58 -252,7 -31,0 -277,10 -37.3287,280.57881 -2.7373,23.45827 -35,301 l 169,-21 c 274.0152,91.72189 43.4907,408.1456 -132,221 -53,-63 -56,-55 -72,-13 123.5685,131.064 180.1365,144.7776 299,88 z M 2268,584 c -2,-22 -9,-30 -27,-32 -13,-2 -21,0 -19,5 2,4 10,23 17,41 16,39 34,30 29,-14 z"
       id="path2"
       inkscape:connector-curvature="0"
       sodipodi:nodetypes="cccccccccssccccssscsccccccccccccccccscccccsccccsccccccccccccccccccccccccccscccccsccccscsccccccccscccccccscccccccsscccccccccccccccccc" />
    <path
       d="m 322,870 c -48.98326,-93.25008 -24.49012,-214.43794 51,-289 37,-36 108,-71 158,-71 175,0 291,159 237,320 -28,93 -106,170 -229,170 -96.44416,4.4042 -181.25693,-54.08458 -217,-130 z m 287,61 C 718,875 754,745 685,654 640.86807,570.01015 507.26619,552.65655 437,608 c -95,73 -110.69057,206.66104 -15,284 73,59 139,55 187,39 z"
       id="path4"
       inkscape:connector-curvature="0"
       sodipodi:nodetypes="ccsccccccsc" />
    <path
       d="m 1805,976 c -148,-70 -189,-246 -89,-382 61,-82 217,-111 315,-58 73,40 128,131 129,216 1,92 -70,198 -156,234 -53,22 -141,18 -199,-10 z m 180,-50 c 42,-18 91,-84 100,-137 17,-101 -35,-183 -135,-213 -80.2313,-25.54863 -167.8454,25.44949 -200,88 -76,157 77,328 235,262 z"
       id="path6"
       inkscape:connector-curvature="0"
       sodipodi:nodetypes="ccccccccccc" />
    <path
       d="m 982,730 c 32.5968,-232.4928 309.3675,-264.42957 429,-131 104,121 66,312 -74,380 -171.0772,87.3502 -365.26674,-42.67018 -355,-249 z m 401,-73 c -120.7883,-138.73339 -336.619,-79.78727 -343,95 0,68 54,146 125,180 177.4123,62.63577 313.8626,-147.17024 218,-275 z"
       id="path8"
       inkscape:connector-curvature="0"
       sodipodi:nodetypes="cccccccc" />
    <path
       d="m 2928,869 c 256.101,-338.05331 64.7319,-68.5676 288,-360 3.7718,342.00113 3.1157,29.87508 7,364 -275,1 -26,1 -295,-4 z m 246,-48 c -6,-118 -4,-29 -7,-155 -64,72 -67,74 -133,153 -7.0525,8.44167 55,5 140,2 z"
       id="path10"
       inkscape:connector-curvature="0"
       sodipodi:nodetypes="ccccccsc" />
  </g>
</svg>
